<?xml version="1.0" encoding="UTF-8" standalone="no"?>
<svg
   xmlns:dc="http://purl.org/dc/elements/1.1/"
   xmlns:cc="http://creativecommons.org/ns#"
   xmlns:rdf="http://www.w3.org/1999/02/22-rdf-syntax-ns#"
   xmlns:svg="http://www.w3.org/2000/svg"
   xmlns="http://www.w3.org/2000/svg"
   xmlns:sodipodi="http://sodipodi.sourceforge.net/DTD/sodipodi-0.dtd"
   xmlns:inkscape="http://www.inkscape.org/namespaces/inkscape"
   width="585pt"
   version="1.1"
   height="117pt"
   viewBox="0 0 585 117"
   id="svg2"
   inkscape:version="0.48.2 r9819"
   sodipodi:docname="Aeropostale_logo2.svg">
  <metadata
     id="metadata37">
    <rdf:RDF>
      <cc:Work
         rdf:about="">
        <dc:format>image/svg+xml</dc:format>
        <dc:type
           rdf:resource="http://purl.org/dc/dcmitype/StillImage" />
        <dc:title></dc:title>
      </cc:Work>
    </rdf:RDF>
  </metadata>
  <sodipodi:namedview
     pagecolor="#ffffff"
     bordercolor="#666666"
     borderopacity="1"
     objecttolerance="10"
     gridtolerance="10"
     guidetolerance="10"
     inkscape:pageopacity="0"
     inkscape:pageshadow="2"
     inkscape:window-width="1680"
     inkscape:window-height="1003"
     id="namedview35"
     showgrid="false"
     inkscape:zoom="1.2764184"
     inkscape:cx="305.96738"
     inkscape:cy="101.65201"
     inkscape:window-x="-4"
     inkscape:window-y="-4"
     inkscape:window-maximized="1"
     inkscape:current-layer="svg2" />
  <defs
     id="defs4">
    <clipPath
       id="Clip0">
      <path
         d="M0 0 L0 116.281 L584.771 116.281 L584.771 0 L0 0 Z"
         transform="translate(0, 0.71875)"
         id="path7" />
    </clipPath>
  </defs>
  <path
     style="fill:#002d62;fill-opacity:1;stroke:#002d62;stroke-width:0.55397725;stroke-opacity:1"
     d="m 84.259943,89.633595 0,-54.843743 18.142757,-4e-5 18.14275,-3.9e-5 0,7.478693 0,7.478693 -8.86363,0 -8.86364,0 0,14.983837 0,14.983837 8.86441,-0.164945 8.8644,-0.164945 -2e-5,8.032671 -1e-5,8.03267 -8.86439,-0.176613 -8.86439,-0.176614 0,17.260083 0,17.26009 8.86415,-0.18717 8.86414,-0.18716 -5.1e-4,7.61719 -5.1e-4,7.61718 -18.14275,4e-5 -18.142757,3e-5 0,-54.843745 0,0 z"
     id="path3016"
     inkscape:connector-curvature="0"
     transform="scale(0.8,0.8)" />
  <path
     style="fill:#002d62;fill-opacity:1;stroke:#002d62;stroke-width:0.55397725;stroke-opacity:1"
     d="M 0.56759808,143.50094 C 1.8779061,139.37253 16.554542,41.807636 16.483457,37.698153 l -0.05031,-2.90838 16.054176,0 16.054177,0 -0.334521,2.09198 c -0.183987,1.150589 -0.05524,3.581165 0.2861,5.401279 0.341341,1.820114 3.604646,24.997508 7.25179,51.50532 3.647143,26.507808 6.875517,48.756928 7.174167,49.442468 l 0.543003,1.24645 -10.67944,0 -10.679442,0 0.167729,-1.80042 c 0.09225,-0.99024 -0.396029,-7.2848 -1.085066,-13.98793 l -1.252795,-12.1875 -8.401947,-0.1527 c -7.647898,-0.13899 -8.427496,-0.0644 -8.686624,0.83097 -0.156571,0.54101 -0.850843,6.90429 -1.542825,14.14062 l -1.25815,13.15696 -9.892879,0 c -9.19619954,0 -9.87105642,-0.0687 -9.58300392,-0.97633 z M 38.386006,95.31179 c -0.17183,-1.142578 -1.241704,-10.736402 -2.377497,-21.319608 -1.884514,-17.559688 -2.158896,-19.27197 -3.138015,-19.58273 -0.590113,-0.187294 -1.299664,-0.113805 -1.576779,0.163309 -0.277114,0.277115 -1.745397,9.338633 -3.26285,20.136707 -1.517453,10.798074 -2.87978,20.318408 -3.027393,21.156299 l -0.268387,1.523438 6.981669,0 6.981669,0 -0.312417,-2.077415 0,0 z"
     id="path3018"
     inkscape:connector-curvature="0"
     transform="scale(0.8,0.8)" />
  <path
     style="fill:#002d62;fill-opacity:1;stroke:#002d62;stroke-width:0.55397725;stroke-opacity:1"
     d="m 143.53551,89.606805 0,-54.8705 18.55824,0.165228 c 18.03954,0.16061 18.62361,0.200161 20.89724,1.415078 3.50625,1.873575 6.02446,4.314255 7.45207,7.222649 1.18288,2.409809 1.29475,3.452237 1.47869,13.778579 0.19807,11.120147 -0.44905,20.582937 -1.6911,24.728508 -0.84262,2.81243 -3.2507,5.190909 -6.00691,5.933079 -1.89251,0.509602 -2.18681,0.799816 -2.18681,2.156482 0,1.404853 0.22561,1.597903 2.17261,1.859048 4.25703,0.57099 6.20811,3.221827 7.23223,9.826064 0.30711,1.98047 0.56027,12.38832 0.56257,23.12855 l 0.004,19.5277 -8.25546,0 -8.25547,0 -0.74476,-1.80042 c -0.57514,-1.39038 -0.7452,-6.22182 -0.74667,-21.2138 -0.002,-17.61232 -0.0926,-19.55175 -0.97907,-20.90493 -1.54405,-2.356812 -3.14562,-3.076994 -7.76524,-3.491796 l -4.31059,-0.387047 0.15576,23.899223 0.15576,23.89923 -8.86363,-2.1e-4 -8.86364,-2.1e-4 0,-54.870505 0,0 z m 29.71491,-11.003882 c 1.30602,-1.05755 1.30782,-1.076606 1.30782,-13.834044 0,-16.085151 0.51723,-15.218385 -9.00213,-15.085513 l -4.57031,0.06379 0,14.957386 0,14.957387 5.4784,0 c 4.56859,0 5.69559,-0.175872 6.78622,-1.059009 z"
     id="path3020"
     inkscape:connector-curvature="0"
     transform="scale(0.8,0.8)" />
  <path
     style="fill:#002d62;fill-opacity:1;stroke:#002d62;stroke-width:0.55397725;stroke-opacity:1"
     d="m 232.72585,145.50693 c -6.15196,-0.94814 -10.88363,-3.37952 -14.86952,-7.64076 -5.11155,-5.46466 -4.77234,-2.09542 -4.77234,-47.401681 0,-38.888644 0.0281,-39.948327 1.12366,-42.363507 4.69266,-10.345173 18.48306,-16.194539 30.68633,-13.01599 4.78911,1.247403 8.45579,3.411419 12.27327,7.243476 5.61282,5.634262 5.25568,2.208417 5.07585,48.689998 -0.1507,38.953524 -0.1966,40.521804 -1.2484,42.656254 -1.50187,3.04777 -5.67169,7.09767 -9.09274,8.83125 -5.20209,2.6361 -13.3103,3.905 -19.17611,3.00096 l 0,0 z m 8.3795,-19.65817 c 1.04457,-0.49567 2.39102,-1.52645 2.9921,-2.29062 1.0605,-1.34819 1.09289,-2.38213 1.09289,-34.883312 0,-30.519498 -0.0836,-33.635412 -0.94107,-35.087037 -2.30834,-3.907711 -10.74386,-3.406924 -12.29542,0.729935 -0.25706,0.685407 -0.56246,16.245954 -0.67866,34.578994 -0.20996,33.12558 -0.20406,33.34255 0.94857,34.90057 1.12277,1.51765 3.85478,2.85723 5.95814,2.92144 0.56333,0.0172 1.87888,-0.37429 2.92345,-0.86997 z"
     id="path3022"
     inkscape:connector-curvature="0"
     transform="scale(0.8,0.8)" />
  <path
     style="fill:#002d62;fill-opacity:1;stroke:#002d62;stroke-width:0.55397725;stroke-opacity:1"
     d="m 286.73864,90.705059 c 0,-37.693122 -0.18026,-54.109027 -0.60282,-54.898589 -0.60188,-1.124619 -0.57319,-1.125972 18.41974,-0.868373 20.19386,0.273886 22.53109,0.550653 26.76915,3.169915 1.0768,0.665501 2.63314,2.362348 3.45853,3.770772 l 1.50071,2.560771 0.22263,22.531377 c 0.24535,24.830398 0.0883,26.307911 -3.1666,29.792295 -2.21146,2.367383 -7.79621,3.926883 -15.2863,4.268563 -3.35999,0.15328 -7.66714,0.41341 -9.57144,0.57806 l -3.46235,0.29936 0,21.28403 0,21.28403 -9.14063,0 -9.14062,0 0,-53.772211 z m 30.10814,-6.540646 c 0.80787,-0.67159 0.91458,-2.468267 0.91458,-15.39805 l 0,-14.637747 -1.35976,-1.359763 c -1.24326,-1.243264 -1.78908,-1.359762 -6.37074,-1.359762 l -5.01097,0 0,16.948218 0,16.948219 5.45615,-0.190406 c 3.56264,-0.124327 5.77356,-0.454264 6.37074,-0.950709 l 0,0 z"
     id="path3024"
     inkscape:connector-curvature="0"
     transform="scale(0.8,0.8)" />
  <path
     style="fill:#002d62;fill-opacity:1;stroke:#002d62;stroke-width:0.55397725;stroke-opacity:1"
     d="m 378.23258,145.27675 c -8.30515,-1.51638 -16.21176,-6.91398 -18.07669,-12.3404 -1.3863,-4.03377 -1.48029,-8.4426 -1.00579,-47.180668 l 0.44445,-36.285512 1.61479,-2.921716 c 6.54057,-11.834196 24.26405,-15.742135 37.14885,-8.191139 3.12672,1.832379 7.82959,6.590628 9.23319,9.341927 1.63065,3.196321 1.698,5.908197 1.18593,47.751042 l -0.44066,36.008526 -1.8317,3.16897 c -3.38405,5.85464 -9.4423,9.71289 -17.10965,10.89645 -4.78356,0.73841 -5.89842,0.71369 -11.16272,-0.24748 z m 9.39389,-19.66734 c 3.91274,-1.99613 3.81425,-1.05609 3.81078,-36.373576 -0.002,-20.369943 -0.20922,-32.198305 -0.58797,-33.562236 -1.04014,-3.74566 -5.72131,-5.345365 -10.1847,-3.48044 -1.03209,0.431237 -2.14589,1.287362 -2.4751,1.902501 -0.41006,0.766198 -0.59857,11.789148 -0.59857,35.000489 0,30.792332 0.0852,34.026322 0.93458,35.464162 1.38577,2.34593 5.60551,2.83235 9.10098,1.0491 l 0,0 z"
     id="path3026"
     inkscape:connector-curvature="0"
     transform="scale(0.8,0.8)" />
  <path
     style="fill:#002d62;fill-opacity:1;stroke:#002d62;stroke-width:0.55397725;stroke-opacity:1"
     d="m 448.72259,144.80067 c -6.49081,-1.48612 -12.46709,-5.5442 -14.55159,-9.88098 -1.0097,-2.10069 -1.14854,-3.61496 -1.29515,-14.12555 l -0.1642,-11.77262 8.86363,-5.3e-4 8.86364,-5.2e-4 -0.17491,6.1966 c -0.1969,6.97595 0.60776,10.14962 3.06305,12.08095 2.85149,2.24298 7.48323,0.81481 9.65199,-2.97614 1.20343,-2.10356 1.31979,-3.0144 1.49832,-11.72824 0.21853,-10.66628 -0.24301,-12.749391 -3.22681,-14.563944 -0.94573,-0.575139 -7.19819,-2.374269 -13.89434,-3.99807 -7.80378,-1.892403 -12.56845,-3.319088 -13.2712,-3.973807 -1.05488,-0.982765 -1.09638,-1.807917 -1.09638,-21.796071 0,-23.686329 -0.15811,-22.790085 4.84627,-27.471096 3.5044,-3.27796 5.04655,-4.048996 10.24677,-5.123131 14.83725,-3.064718 29.1714,1.35022 32.99176,10.161508 0.59497,1.372232 0.95597,4.655279 1.17715,10.705233 l 0.31901,8.726023 -9.14062,3.91e-4 -9.14063,3.91e-4 0.17944,-5.050469 c 0.21531,-6.060035 -0.4498,-8.069831 -3.02697,-9.146638 -4.54661,-1.899697 -9.03156,-0.07309 -10.1281,4.124918 -0.29263,1.120336 -0.7063,5.842634 -0.91926,10.493997 -0.342,7.469949 -0.27921,8.576348 0.53802,9.479377 1.43344,1.583926 4.24328,2.587522 15.0188,5.364281 12.85204,3.31186 12.6948,3.245029 14.73219,6.26143 l 1.73492,2.568571 -0.36104,21.259276 c -0.40339,23.75297 -0.3737,23.56453 -4.36027,27.67586 -4.34293,4.47884 -10.34728,6.612 -19.77847,7.02671 -3.86522,0.16995 -6.95017,-0.004 -9.19502,-0.51771 l 0,0 z"
     id="path3028"
     inkscape:connector-curvature="0"
     transform="scale(0.8,0.8)" />
  <path
     style="fill:#002d62;fill-opacity:1;stroke:#002d62;stroke-width:0.55397725;stroke-opacity:1"
     d="m 510.05583,124.39621 c 0.18774,-11.34995 0.37471,-32.805181 0.41548,-47.678301 l 0.0741,-27.042034 -5.81793,0.174137 -5.81793,0.174136 10e-4,-7.340199 10e-4,-7.340199 20.77415,0 20.77415,0 0,7.34415 0,7.344151 -6.38567,-0.202709 -6.38567,-0.202708 0.15343,47.702409 0.15342,47.702417 -9.14063,5.1e-4 -9.14062,5.2e-4 0.34134,-20.63628 0,0 z"
     id="path3030"
     inkscape:connector-curvature="0"
     transform="scale(0.8,0.8)" />
  <path
     style="fill:#002d62;fill-opacity:1;stroke:#002d62;stroke-width:0.55397725;stroke-opacity:1"
     d="m 551.23197,144.08082 c 1.30351,-3.39688 16.43501,-104.887189 15.98481,-107.213633 l -0.29481,-1.523437 16.13647,0 16.13647,0 -0.3437,2.149402 c -0.18904,1.182171 -0.084,3.363457 0.23345,4.847302 0.31743,1.483844 3.58933,24.635398 7.27088,51.447898 3.68155,26.812498 6.93362,49.310898 7.22682,49.996448 l 0.53309,1.24645 -10.40211,0 -10.40212,0 -1.35802,-13.98793 -1.35803,-13.98792 -8.434,-0.15285 c -8.38216,-0.15191 -8.43566,-0.1451 -8.7045,1.10795 -0.14878,0.69345 -0.82263,7.05679 -1.49744,14.14078 l -1.22693,12.87997 -9.93252,0 c -9.15616,0 -9.90402,-0.0743 -9.56781,-0.95043 z m 37.97826,-46.091719 c 0,-0.279432 -0.99716,-9.773106 -2.21591,-21.097056 -1.21875,-11.323949 -2.21591,-20.942269 -2.21591,-21.374045 0,-0.499317 -0.59253,-0.785045 -1.62799,-0.785045 -1.49224,0 -1.65654,0.196314 -1.97044,2.354403 -2.53715,17.443232 -5.61583,40.670524 -5.43363,40.994318 0.33894,0.602306 13.46388,0.512064 13.46388,-0.09257 z"
     id="path3032"
     inkscape:connector-curvature="0"
     transform="scale(0.8,0.8)" />
  <path
     style="fill:#002d62;fill-opacity:1;stroke:#002d62;stroke-width:0.55397725;stroke-opacity:1"
     d="m 633.22086,143.23082 c 0.16314,-0.99023 0.3614,-25.66924 0.44058,-54.842226 l 0.14396,-53.041804 9.33839,-0.0015 c 8.70552,-0.0014 9.30621,0.06418 8.86363,0.96794 -0.26111,0.533203 -0.53993,21.487826 -0.6196,46.565829 l -0.14486,45.596371 11.36351,-0.17024 11.36352,-0.17023 -6.2e-4,8.44816 -6.2e-4,8.44815 -20.52226,0 -20.52226,0 0.29663,-1.80043 0,0 z"
     id="path3034"
     inkscape:connector-curvature="0"
     transform="scale(0.8,0.8)" />
  <path
     style="fill:#008000;fill-opacity:1;stroke:#008000;stroke-width:0.55397724999999998;stroke-opacity:1"
     d="m 694.18892,90.187533 0,-54.843746 18.14276,-1.9e-5 18.14275,-1.8e-5 7.7e-4,7.617187 7.7e-4,7.617188 -8.86441,-0.164945 -8.8644,-0.164945 0,5.754736 c 0,3.165104 -0.16379,9.907831 -0.36399,14.983836 l -0.36398,9.229102 9.22762,0 9.22762,0 0,8.295948 0,8.295948 -1.421,-0.540266 c -0.78156,-0.297148 -4.89484,-0.540266 -9.14063,-0.540266 l -7.71962,0 0,17.211417 0,17.21141 8.86439,-0.17661 8.86439,-0.17661 -7.5e-4,7.61718 -7.6e-4,7.61719 -17.86576,2e-5 -17.86577,1e-5 0,-54.843747 0,0 z"
     id="path3036"
     inkscape:connector-curvature="0"
     transform="scale(0.8,0.8)" />
  <path
     style="fill:#002d62;fill-opacity:1;stroke:#002d62;stroke-width:0.55397724999999998;stroke-opacity:1"
     d="m 81.81321,22.421376 c 0.464002,-0.384345 40.369,-20.8599385 40.65405,-20.8599385 0.16176,0 0.2941,4.7365057 0.2941,10.5255685 l 0,10.525568 -20.58949,0 c -11.324214,0 -20.485613,-0.08604 -20.35866,-0.191198 z"
     id="path3038"
     inkscape:connector-curvature="0"
     transform="scale(0.8,0.8)" />
  <path
     style="fill:#002d62;fill-opacity:1;stroke:#002d62;stroke-width:0.55397725;stroke-opacity:1"
     d="m 693.91193,90.197801 0,-54.84375 18.28125,0 18.28125,0 0,7.544881 0,7.54488 -8.79957,-0.223944 -8.79957,-0.223943 -0.33517,6.39 c -0.18434,3.514501 -0.32517,8.758254 -0.31296,11.652785 0.0122,2.894532 -0.14412,6.820846 -0.34741,8.725142 l -0.36962,3.462358 9.48215,0 9.48215,0 10e-5,7.894176 9e-5,7.894177 -9.14072,-0.192845 -9.14072,-0.192851 0,17.452353 0,17.45235 5.67827,-0.2368 c 3.12305,-0.13024 7.11168,-0.33236 8.86364,-0.44916 l 3.18536,-0.21235 0,7.70314 0,7.70315 -18.00426,0 -18.00426,0 0,-54.843749 z"
     id="path3040"
     inkscape:connector-curvature="0"
     transform="scale(0.8,0.8)" />
</svg>
