<?xml version="1.0" encoding="UTF-8" standalone="no"?>
<!-- Created with Inkscape (http://www.inkscape.org/) -->
<svg
   xmlns:dc="http://purl.org/dc/elements/1.1/"
   xmlns:cc="http://web.resource.org/cc/"
   xmlns:rdf="http://www.w3.org/1999/02/22-rdf-syntax-ns#"
   xmlns:svg="http://www.w3.org/2000/svg"
   xmlns="http://www.w3.org/2000/svg"
   xmlns:sodipodi="http://sodipodi.sourceforge.net/DTD/sodipodi-0.dtd"
   xmlns:inkscape="http://www.inkscape.org/namespaces/inkscape"
   width="222.12509"
   height="124.52796"
   id="svg1997"
   sodipodi:version="0.32"
   inkscape:version="0.44.1"
   version="1.0"
   sodipodi:docbase="C:\Documents and Settings\Sigurd\Mine dokumenter\Mine bilder"
   sodipodi:docname="Diesel logo.svg">
  <defs
     id="defs1999" />
  <sodipodi:namedview
     id="base"
     pagecolor="#ffffff"
     bordercolor="#666666"
     borderopacity="1.0"
     gridtolerance="10000"
     guidetolerance="10"
     objecttolerance="10"
     inkscape:pageopacity="0.0"
     inkscape:pageshadow="2"
     inkscape:zoom="1"
     inkscape:cx="266.02988"
     inkscape:cy="139.66646"
     inkscape:document-units="px"
     inkscape:current-layer="layer1"
     inkscape:window-width="1024"
     inkscape:window-height="719"
     inkscape:window-x="-4"
     inkscape:window-y="-4" />
  <metadata
     id="metadata2002">
    <rdf:RDF>
      <cc:Work
         rdf:about="">
        <dc:format>image/svg+xml</dc:format>
        <dc:type
           rdf:resource="http://purl.org/dc/dcmitype/StillImage" />
      </cc:Work>
    </rdf:RDF>
  </metadata>
  <g
     inkscape:label="Layer 1"
     inkscape:groupmode="layer"
     id="layer1"
     transform="translate(-263.9375,-470.0982)">
    <polygon
       points="8.504,47.114 184.252,47.114 184.252,145.642 8.504,145.642 8.504,47.114 "
       id="polygon1958"
       transform="matrix(1.263884,0,0,1.263884,253.1894,410.5516)"
       style="fill:#ea2d31" />
    <path
       d="M 277.51913,491.51912 L 277.51913,562.17816 L 292.48826,562.17816 C 312.28448,564.01963 312.27595,538.91478 312.27595,538.91478 L 312.27595,517.07328 C 312.04592,491.06254 293.39667,491.51912 293.39667,491.51912 L 277.51913,491.51912 z M 291.42185,502.45962 C 299.15187,501.90581 298.92739,513.12364 298.92617,513.12364 L 298.92617,540.06018 C 299.15619,553.41185 290.63193,551.35615 290.63193,551.35615 L 290.63193,502.53861 C 290.89809,502.49545 291.1725,502.47749 291.42185,502.45962 z "
       id="path1960"
       style="fill:white" />
    <polygon
       points="51.849,64.051 62.048,64.051 62.048,119.963 51.849,119.963 51.849,64.051 "
       id="polygon1964"
       transform="matrix(1.263884,0,0,1.263884,253.1894,410.5516)"
       style="fill:white" />
    <polygon
       points="91.005,119.807 91.005,111.585 77.71,111.585 77.71,95.922 86.999,95.922 86.999,86.999 77.893,86.999 77.893,72.975 90.642,72.975 90.642,64.051 67.329,64.051 67.329,119.919 91.005,119.807 "
       id="polygon1966"
       transform="matrix(1.263884,0,0,1.263884,253.1894,410.5516)"
       style="fill:white" />
    <path
       d="M 392.14712,511.76086 L 403.42602,511.76086 C 403.42602,511.76086 404.80745,489.8944 387.08273,489.8944 C 369.35802,489.8944 370.28066,506.9265 370.28066,506.9265 C 370.28066,506.9265 367.97912,520.73697 382.71096,531.78458 C 382.71096,531.78458 398.13288,540.76321 392.37841,550.4294 C 392.37841,550.4294 383.17101,558.71669 382.93972,542.14338 L 371.20076,542.14338 C 371.20076,542.14338 369.12926,564.93121 388.46416,564.0111 C 388.46416,564.0111 404.34613,563.77981 405.49879,547.20776 C 405.49879,547.20776 407.34027,535.00748 394.90997,523.72858 C 394.90997,523.72858 377.18652,512.21965 383.63107,503.01225 C 383.63107,503.01352 390.99698,495.41757 392.14712,511.76086 L 392.14712,511.76086 z "
       id="path1968"
       style="fill:white" />
    <polygon
       points="123.738,64.051 147.07,64.051 147.07,73.157 134.35,73.157 134.35,87.181 143.82,87.181 143.82,96.469 134.168,96.469 134.168,111.585 147.463,111.585 147.463,120.327 123.969,120.327 123.738,64.051 "
       id="polygon1970"
       transform="matrix(1.263884,0,0,1.263884,253.1894,410.5516)"
       style="fill:white" />
    <polygon
       points="152.337,64.051 162.575,64.051 162.575,111.585 173.324,111.585 173.324,120.327 152.337,120.327 152.337,64.051 "
       id="polygon1972"
       transform="matrix(1.263884,0,0,1.263884,253.1894,410.5516)"
       style="fill:white" />
    <path
       d="M 467.30906,492.65977 C 467.59849,492.60037 468.02063,492.56119 468.40611,492.56119 C 469.01909,492.56119 469.42101,492.68 469.69654,492.93025 C 469.91393,493.12109 470.04537,493.42316 470.04537,493.77199 C 470.04537,494.35085 469.67,494.74013 469.20994,494.89685 L 469.20994,494.91707 C 469.54613,495.03588 469.74962,495.35185 469.86211,495.8119 C 470.00619,496.42994 470.11109,496.85713 470.1983,497.02776 L 469.60554,497.02776 C 469.53223,496.90263 469.43491,496.52094 469.31611,495.96862 C 469.18466,495.3569 468.94073,495.12688 468.42128,495.10665 L 467.88286,495.10665 L 467.88286,497.02776 L 467.31032,497.02776 L 467.31032,492.65977 L 467.30906,492.65977 z M 467.8816,494.67314 L 468.46678,494.67314 C 469.0785,494.67314 469.46651,494.33821 469.46651,493.8314 C 469.46651,493.25886 469.05196,493.00987 468.44656,493.00987 C 468.16976,493.00987 467.97892,493.03641 467.8816,493.06295 L 467.8816,494.67314 L 467.8816,494.67314 z "
       id="path1974"
       style="fill:white" />
    <path
       d="M 472.45307,494.95752 L 472.45307,494.95752 L 472.45307,494.95752 C 472.4518,496.03435 472.01576,497.0088 471.31305,497.71152 L 471.31178,497.71152 C 470.6078,498.41424 469.63587,498.84902 468.5603,498.85028 L 468.5603,498.85154 L 468.55904,498.85154 L 468.55778,498.85154 L 468.55778,498.85028 C 467.48095,498.85028 466.50776,498.41424 465.80377,497.71152 C 465.09979,497.00754 464.66628,496.03435 464.66501,494.96004 L 464.66375,494.96004 L 464.66375,494.95878 L 464.66375,494.95752 L 464.66501,494.95752 C 464.66628,493.88069 465.10105,492.9075 465.80377,492.20351 C 466.50649,491.49953 467.48095,491.06602 468.55651,491.06475 L 468.55651,491.06349 L 468.55904,491.06349 L 468.5603,491.06349 L 468.5603,491.06475 C 469.63461,491.06475 470.6078,491.50079 471.31305,492.20478 L 471.31305,492.20478 C 472.01703,492.90876 472.4518,493.88069 472.4518,494.95625 L 472.45307,494.95625 L 472.45307,494.95752 L 472.45307,494.95752 z M 471.57088,494.95878 L 471.57088,494.95878 L 471.57088,494.95878 L 471.56961,494.95625 L 471.57088,494.95625 C 471.57088,494.12714 471.23216,493.37513 470.68742,492.8304 L 470.68742,492.82914 C 470.14395,492.2844 469.39194,491.94694 468.5603,491.94694 L 468.5603,491.94821 L 468.55904,491.94821 L 468.55651,491.94821 L 468.55651,491.94694 C 467.72741,491.94694 466.97539,492.28566 466.4294,492.8304 C 465.8834,493.37513 465.54594,494.12841 465.54594,494.95878 L 465.54847,494.95878 L 465.54847,494.96004 L 465.54847,494.96131 L 465.54594,494.96131 C 465.5472,495.79042 465.88466,496.54116 466.4294,497.08716 C 466.97413,497.63316 467.72741,497.97062 468.55778,497.97062 L 468.55778,497.96935 L 468.55904,497.96935 L 468.5603,497.96935 L 468.5603,497.97062 C 469.39068,497.97062 470.14269,497.63316 470.68869,497.08843 L 470.68742,497.08843 C 471.23342,496.54116 471.57088,495.78789 471.57088,494.95878 L 471.57088,494.95878 z "
       id="path1976"
       style="fill:white" />
  </g>
</svg>
